<svg xmlns="http://www.w3.org/2000/svg" xmlns:xlink="http://www.w3.org/1999/xlink" width="64" height="68" viewBox="0 0 64 68">
    <defs>
        <rect id="a" width="64" height="68" rx="3"/>
    </defs>
    <g fill="none" fill-rule="evenodd">
        <mask id="b" fill="#fff">
            <use xlink:href="#a"/>
        </mask>
        <path fill="#FDCA27" fill-rule="nonzero" d="M43.37 40.479c0 .607-.49 1.1-1.094 1.1h-5.477v4.4c0 1.215-.98 2.2-2.19 2.2h-1.095a1.097 1.097 0 0 1-1.095-1.1c0-.608.49-1.1 1.095-1.1h1.095v-4.4c0-1.215.98-2.2 2.19-2.2h5.477c.604 0 1.095.492 1.095 1.1zm-10.951 0c0 .607-.491 1.1-1.096 1.1h-4.38a1.098 1.098 0 0 1-1.096-1.1c0-.608.49-1.1 1.095-1.1h4.381c.605 0 1.096.492 1.096 1.1zm1.095 13.2h2.19c.605 0 1.095.492 1.095 1.1 0 .607-.49 1.1-1.095 1.1h-2.19a1.097 1.097 0 0 1-1.095-1.1c0-.608.49-1.1 1.095-1.1zm13.46 1.66c5.012 1.594 8.426 6.258 8.445 11.54v2.2h-2.19v-2.2c-.017-4.759-3.391-8.837-8.047-9.723-.566.483-1.172.918-1.81 1.298v.725c0 4.86-3.924 8.8-8.763 8.8s-8.762-3.94-8.762-8.8v-.725c-.64-.38-1.245-.815-1.811-1.298-4.656.886-8.03 4.964-8.046 9.723v2.2H13.8v-2.2c.018-5.282 3.432-9.946 8.445-11.54a13.355 13.355 0 0 1-2.97-8.38v-.98c-2.419 0-4.38-1.97-4.38-4.4 0-2.43 1.961-4.4 4.38-4.4v-5.5h2.191V46.96c0 6.141 4.958 11.12 11.073 11.119h4.141c6.115 0 11.072-4.979 11.072-11.12v-15.28h2.19v5.5c2.42 0 4.381 1.97 4.381 4.4 0 2.43-1.961 4.4-4.38 4.4v.98a13.355 13.355 0 0 1-2.97 8.38zm5.159-13.76c0-1.215-.981-2.2-2.19-2.2v4.4c1.209 0 2.19-.985 2.19-2.2zm-35.048 0c0 1.215.98 2.2 2.19 2.2v-4.4c-1.21 0-2.19.985-2.19 2.2zm17.524 24.2c3.512 0 6.403-2.773 6.565-6.296a13.18 13.18 0 0 1-4.49.796h-4.14a13.18 13.18 0 0 1-4.491-.796c.161 3.52 3.047 6.291 6.556 6.296zm-4.38-22c0 .607-.491 1.1-1.096 1.1a1.098 1.098 0 0 1-1.095-1.1c0-.608.49-1.1 1.095-1.1s1.095.492 1.095 1.1zm10.951 0c0 .607-.49 1.1-1.095 1.1a1.098 1.098 0 0 1-1.095-1.1c0-.608.49-1.1 1.095-1.1s1.095.492 1.095 1.1zM18.686 54.655a13.176 13.176 0 0 0-7.077 11.712h-2.19a15.37 15.37 0 0 1 8.255-13.664l1.012 1.952zM34.61 3.079a12.043 12.043 0 0 1 10.738 6.604c3.022 5.954.666 13.24-5.262 16.276v.22h1.096c.604 0 1.095.492 1.095 1.1v4.4c0 .607-.49 1.1-1.095 1.1h-1.336l-.473 1.9a3.288 3.288 0 0 1-3.188 2.5h-3.15a3.288 3.288 0 0 1-3.188-2.498l-.474-1.902h-1.334a1.098 1.098 0 0 1-1.096-1.1v-4.4c0-.608.49-1.1 1.096-1.1h1.095v-.22a12.106 12.106 0 0 1-6.576-10.784c.002-6.683 5.398-12.099 12.052-12.096zm2.638 31.066l.34-1.366h-5.956l.34 1.367c.122.49.56.833 1.063.833h3.15c.503 0 .942-.344 1.063-.834zm2.838-3.566v-2.2H29.133v2.2h10.952zm-1.533-6.33a9.879 9.879 0 0 0 5.091-5.113c2.178-5.011-.102-10.846-5.091-13.034-4.99-2.187-10.8.103-12.977 5.114-2.178 5.011.102 10.846 5.091 13.033a1.1 1.1 0 0 1 .657 1.008v.922h2.19v-6.145l-4.06-4.077 1.55-1.556 3.606 3.622 3.607-3.622 1.548 1.556-4.06 4.077v6.145h2.19v-.922a1.1 1.1 0 0 1 .658-1.008zM44.78 5.17l1.563-1.54c5.16 5.29 6.18 13.385 2.497 19.8l-1.898-1.1a14.354 14.354 0 0 0-2.162-17.16zm-.204 20.223c.436-.428.845-.885 1.222-1.367l1.722 1.362a16.722 16.722 0 0 1-1.411 1.578l-1.533-1.573z" mask="url(#b)" opacity=".402" transform="rotate(-30 32.419 36.079)"/>
    </g>
</svg>
