<svg xmlns="http://www.w3.org/2000/svg" width="29" height="29" viewBox="0 0 29.199 29.199">
  <path id="Path_48" data-name="Path 48" d="M28.7-12.771h3.745V3.644H29.275L26.914,2.463a3.5,3.5,0,0,1-.444,1.2,3.674,3.674,0,0,1-.812.952,3.818,3.818,0,0,1-1.079.628,3.484,3.484,0,0,1-1.257.229H10.55A3.445,3.445,0,0,1,9.141,5.18a3.86,3.86,0,0,1-1.162-.787,3.724,3.724,0,0,1-.793-1.155,3.445,3.445,0,0,1-.292-1.409v-4.57H3.25V-11.87h2.5A7.1,7.1,0,0,1,4.57-14.009a7.346,7.346,0,0,1-.406-2.418,7.044,7.044,0,0,1,.578-2.831A7.425,7.425,0,0,1,6.31-21.582,7.445,7.445,0,0,1,8.626-23.15a7.03,7.03,0,0,1,2.837-.578,7.237,7.237,0,0,1,3.009.641,7.118,7.118,0,0,1,2.463,1.834A7.6,7.6,0,0,1,19.4-23.086a7.082,7.082,0,0,1,3-.641,7.044,7.044,0,0,1,2.831.578,7.425,7.425,0,0,1,2.323,1.568,7.425,7.425,0,0,1,1.568,2.323,7.044,7.044,0,0,1,.578,2.831,6.964,6.964,0,0,1-.26,1.892A7.69,7.69,0,0,1,28.7-12.771ZM11.464-21.9a5.292,5.292,0,0,0-2.126.432A5.557,5.557,0,0,0,7.6-20.293a5.557,5.557,0,0,0-1.174,1.739,5.292,5.292,0,0,0-.432,2.126A5.292,5.292,0,0,0,6.424-14.3,5.557,5.557,0,0,0,7.6-12.562a5.557,5.557,0,0,0,1.739,1.174,5.292,5.292,0,0,0,2.126.432H22.407a5.292,5.292,0,0,0,2.126-.432,5.634,5.634,0,0,0,1.746-1.174A5.5,5.5,0,0,0,27.46-14.3a5.292,5.292,0,0,0,.432-2.126,5.292,5.292,0,0,0-.432-2.126,5.5,5.5,0,0,0-1.181-1.739,5.634,5.634,0,0,0-1.746-1.174,5.292,5.292,0,0,0-2.126-.432,5.292,5.292,0,0,0-2.126.432,5.557,5.557,0,0,0-1.739,1.174,5.557,5.557,0,0,0-1.174,1.739,5.292,5.292,0,0,0-.432,2.126,5.292,5.292,0,0,0-.432-2.126,5.557,5.557,0,0,0-1.174-1.739,5.557,5.557,0,0,0-1.739-1.174A5.292,5.292,0,0,0,11.464-21.9ZM10.55,3.644H23.321V-2.742a.881.881,0,0,0-.267-.647.881.881,0,0,0-.647-.267H11.464a.881.881,0,0,0-.647.267.881.881,0,0,0-.267.647ZM30.621,1.828V-10.956h-.914L26.063-9.128V0l3.644,1.828ZM7.808-9.128v3.656H17.85a1.738,1.738,0,0,0,.711-.146,1.89,1.89,0,0,0,.578-.394,1.889,1.889,0,0,0,.394-.578,1.738,1.738,0,0,0,.146-.711,1.738,1.738,0,0,0-.146-.711,1.89,1.89,0,0,0-.394-.578,1.89,1.89,0,0,0-.578-.394,1.738,1.738,0,0,0-.711-.146ZM12.378,0V-1.828h9.115V0Zm-7.3-4.57h.914l.9-.9V-9.128l-.9-.914H5.078Zm6.386-10.943a.881.881,0,0,1-.647-.267.881.881,0,0,1-.267-.647.881.881,0,0,1,.267-.647.881.881,0,0,1,.647-.267.881.881,0,0,1,.647.267.881.881,0,0,1,.267.647.881.881,0,0,1-.267.647A.881.881,0,0,1,11.464-15.514Zm10.943,0a.878.878,0,0,1-.641-.273.878.878,0,0,1-.273-.641.878.878,0,0,1,.273-.641.878.878,0,0,1,.641-.273.881.881,0,0,1,.647.267.881.881,0,0,1,.267.647.881.881,0,0,1-.267.647A.881.881,0,0,1,22.407-15.514ZM23.321-7.3a.881.881,0,0,0-.267-.647.881.881,0,0,0-.647-.267.878.878,0,0,0-.641.273.878.878,0,0,0-.273.641.878.878,0,0,0,.273.641.878.878,0,0,0,.641.273.878.878,0,0,0,.641-.273A.878.878,0,0,0,23.321-7.3Z" transform="translate(-3.25 23.728)" fill="#222"/>
</svg>
