<svg xmlns="http://www.w3.org/2000/svg" width="75" height="58" viewBox="0 0 75 58.516">
  <g id="Group_2606" data-name="Group 2606" transform="translate(-170.001 -1781)">
    <g id="Group_2605" data-name="Group 2605" transform="translate(170 1781)">
      <g id="Group_2604" data-name="Group 2604">
        <path id="Union_1" data-name="Union 1" d="M37.1,57.93,29.167,50H4a4,4,0,0,1-4-4V4A4,4,0,0,1,4,0H71a4,4,0,0,1,4,4V46a4,4,0,0,1-4,4H47.856l-7.93,7.93a2,2,0,0,1-2.829,0Z" fill="#1d9bc5"/>
        <g id="Group_2603" data-name="Group 2603" transform="translate(22.917 13.674)">
          <path id="Path_38" data-name="Path 38" d="M38.593,22.9H32.821A3.407,3.407,0,0,0,29.4,26.249v7.982a3.362,3.362,0,0,0,3.421,3.35H36.1v1.212a4.81,4.81,0,0,1-3.635,4.418,2.925,2.925,0,0,0-2,3.635,2.885,2.885,0,0,0,2.779,2.067,3.577,3.577,0,0,0,.855-.143,10.61,10.61,0,0,0,7.768-10.049V26.249A3.123,3.123,0,0,0,38.593,22.9Z" transform="translate(-29.4 -22.9)" fill="#f9fafc"/>
          <path id="Path_39" data-name="Path 39" d="M62.093,22.9H56.321A3.407,3.407,0,0,0,52.9,26.249v7.982a3.362,3.362,0,0,0,3.421,3.35H59.6v1.212a4.81,4.81,0,0,1-3.635,4.418,2.925,2.925,0,0,0-2,3.635,2.885,2.885,0,0,0,2.779,2.067,3.577,3.577,0,0,0,.855-.143,10.61,10.61,0,0,0,7.768-10.049V26.249A3.2,3.2,0,0,0,62.093,22.9Z" transform="translate(-36.153 -22.9)" fill="#f9fafc"/>
        </g>
      </g>
    </g>
  </g>
</svg>
