<svg xmlns="http://www.w3.org/2000/svg" xmlns:xlink="http://www.w3.org/1999/xlink" width="1440" height="416" viewBox="0 0 1440 416">
    <defs>
        <path id="a" d="M0 0h1440v416H0z"/>
    </defs>
    <g fill="none" fill-rule="evenodd">
        <mask id="b" fill="#fff">
            <use xlink:href="#a"/>
        </mask>
        <g mask="url(#b)" opacity=".147">
            <path fill="#FFF" fill-rule="nonzero" d="M375.28 46.859c.711 1.183.367 2.696-.77 3.378l-10.286 6.181 5.15 8.572c1.423 2.367.734 5.393-1.538 6.758l-2.057 1.236c-1.136.683-2.634.277-3.345-.907-.711-1.183-.367-2.696.77-3.379l2.057-1.236-5.15-8.571c-1.423-2.368-.734-5.393 1.538-6.758l10.286-6.181c1.137-.683 2.634-.277 3.345.907zm-23.71 12.563c1.104-.664 2.576-.243 3.287.94.711 1.184.392 2.682-.712 3.345l-8 4.807c-1.105.664-2.577.243-3.288-.94-.711-1.184-.392-2.682.712-3.345l8-4.807zm20.857 24.69l4.286-2.575a2.5 2.5 0 0 1 2.575 4.286l-4.286 2.575a2.5 2.5 0 1 1-2.575-4.285zm59.234 3.737l-4.15 2.493-2.515-4.185c-5.469-9.033-16.524-12.95-26.358-9.335a29.046 29.046 0 0 1-1.949 4.532l.829 1.378c5.555 9.246 2.625 21.206-6.544 26.716-9.17 5.51-21.105 2.48-26.66-6.765l-.829-1.378a29.003 29.003 0 0 1-4.916-.407c-7.808 6.985-9.54 18.585-4.132 27.655l2.515 4.185-4.15 2.494-2.515-4.185c-6.002-10.068-4.865-22.827 2.812-31.567a29.714 29.714 0 0 1-15.204-12.56l-1.12-1.864c-4.585 2.754-10.553 1.24-13.33-3.383-2.778-4.623-1.313-10.603 3.271-13.357l-6.287-10.463 4.151-2.494 17.465 29.067.002.002c7.02 11.681 22.104 15.507 33.69 8.544l7.844-4.713.002-.002c11.586-6.961 15.288-22.075 8.268-33.758l-17.465-29.067 4.15-2.494 6.287 10.463c4.585-2.754 10.553-1.24 13.33 3.382 2.778 4.623 1.313 10.603-3.271 13.358l1.12 1.864a29.71 29.71 0 0 1 3.952 19.322c11.321-2.675 23.12 2.31 29.192 12.337l2.515 4.185zm-37.658-48.572c-1.389-2.311-4.373-3.069-6.665-1.69l5.029 8.369c2.292-1.377 3.025-4.368 1.636-6.679zm-66.408 39.902c1.389 2.311 4.373 3.068 6.665 1.691l-5.03-8.37c-2.291 1.377-3.024 4.368-1.635 6.679zm60.864 26.084c6.655-3.998 8.964-12.565 5.243-19.451a29.034 29.034 0 0 1-7.598 6.627l-7.845 4.713a29.034 29.034 0 0 1-9.418 3.598c4.329 6.512 12.965 8.499 19.618 4.513zM355.5 67.68a2.5 2.5 0 1 1-4.286 2.576 2.5 2.5 0 0 1 4.286-2.576zm20-12a2.5 2.5 0 1 1-4.286 2.576 2.5 2.5 0 0 1 4.286-2.576zm-29.437 77.362l-4.052 2.434c-6.517-10.805-6.586-24.267-.18-34.891l4.079 2.547c-5.492 9.107-5.433 20.647.153 29.91zm72.12-69.796c7.754 2.455 14.319 7.627 18.483 14.56l-4.157 2.498a28.473 28.473 0 0 0-15.84-12.479l1.514-4.579zM381.543 16.6l-4.712.026c-.313-10.234-4.416-20.067-11.492-27.543l3.361-3.265c7.909 8.355 12.494 19.345 12.843 30.782zM295.09 41.33c-6.547-10.804-8.26-23.882-4.738-36.154l4.76 1.244c-3.152 10.98-1.619 22.682 4.239 32.35.397.662.813 1.31 1.247 1.936l-4.123 2.79a46.743 46.743 0 0 1-1.385-2.166zm8.873 2.576a40.307 40.307 0 0 0 3.31 3.423l-3.414 3.64a45.183 45.183 0 0 1-3.701-3.832l3.805-3.231zm16.545-60.68a2.436 2.436 0 0 1 3.34.846l3.007 5.003a28.586 28.586 0 0 1 8.043-1.19l1.384-5.638a2.414 2.414 0 0 1 2.941-1.767l9.45 2.393a2.46 2.46 0 0 1 1.78 2.964l-1.386 5.64a29.05 29.05 0 0 1 6.555 4.885l4.966-2.984a2.436 2.436 0 0 1 3.34.846l5.037 8.384a2.436 2.436 0 0 1-.82 3.346l-4.966 2.984a29.05 29.05 0 0 1 1.236 8.081l5.63 1.425a2.46 2.46 0 0 1 1.781 2.964l-2.323 9.466a2.415 2.415 0 0 1-2.941 1.768l-5.629-1.426a28.609 28.609 0 0 1-4.826 6.543l3.007 5.004a2.436 2.436 0 0 1-.822 3.346l-8.321 5a2.436 2.436 0 0 1-3.34-.846l-3.007-5.003a28.609 28.609 0 0 1-8.043 1.19l-1.383 5.638a2.415 2.415 0 0 1-2.942 1.768l-9.448-2.394a2.458 2.458 0 0 1-1.781-2.964l1.385-5.64a29.04 29.04 0 0 1-6.554-4.886l-4.967 2.984a2.436 2.436 0 0 1-3.34-.846l-5.037-8.384a2.436 2.436 0 0 1 .82-3.346l4.967-2.984a29.049 29.049 0 0 1-1.237-8.08l-5.63-1.425a2.458 2.458 0 0 1-1.78-2.964l2.322-9.466a2.414 2.414 0 0 1 2.942-1.768l5.628 1.426a28.586 28.586 0 0 1 4.826-6.543l-3.006-5.004a2.436 2.436 0 0 1 .82-3.346l8.322-5zm16.144 9.594a23.907 23.907 0 0 0-10.003 1.477 2.44 2.44 0 0 1-2.944-1.039l-2.758-4.59-4.16 2.5 2.757 4.59a2.44 2.44 0 0 1-.466 3.085 23.914 23.914 0 0 0-6 8.138 2.414 2.414 0 0 1-2.798 1.348l-5.162-1.306-1.162 4.735 5.165 1.31a2.459 2.459 0 0 1 1.848 2.524c-.203 3.416.32 6.84 1.537 10.046a2.433 2.433 0 0 1-1.015 2.947l-4.556 2.738 2.518 4.191 4.556-2.737a2.432 2.432 0 0 1 3.077.488 24.27 24.27 0 0 0 8.149 6.074 2.459 2.459 0 0 1 1.361 2.816l-1.266 5.174 4.726 1.197 1.269-5.173a2.414 2.414 0 0 1 2.503-1.838 23.914 23.914 0 0 0 10.003-1.476 2.44 2.44 0 0 1 2.943 1.038l2.759 4.59 4.16-2.5-2.758-4.59a2.44 2.44 0 0 1 .466-3.084 23.917 23.917 0 0 0 6-8.14 2.413 2.413 0 0 1 2.798-1.346l5.162 1.305 1.162-4.735-5.164-1.31a2.46 2.46 0 0 1-1.848-2.523c.203-3.416-.321-6.84-1.537-10.047a2.432 2.432 0 0 1 1.015-2.947l4.556-2.737-2.518-4.192-4.556 2.737a2.432 2.432 0 0 1-3.077-.488 24.261 24.261 0 0 0-8.15-6.073 2.46 2.46 0 0 1-1.36-2.817l1.266-5.174-4.727-1.197-1.268 5.173a2.414 2.414 0 0 1-2.503 1.838zm-18.056 34.348c-5.552-9.263-2.614-21.238 6.568-26.77 9.192-5.523 21.155-2.493 26.72 6.769 5.565 9.261 2.624 21.246-6.568 26.77-9.193 5.523-21.155 2.492-26.72-6.769zm29.127-17.501c-4.179-6.939-13.145-9.21-20.04-5.076-6.894 4.142-9.1 13.131-4.926 20.077 4.173 6.946 13.145 9.218 20.04 5.076 6.893-4.142 9.1-13.131 4.926-20.077zM223.204 416.1a45.67 45.67 0 0 1 .622 5.526c1.298 25.225-18.101 46.745-43.33 48.066-25.226 1.32-46.73-18.059-48.028-43.285a22.79 22.79 0 0 1-10.343.09c-12.284-2.752-20.004-14.94-17.242-27.227a22.842 22.842 0 0 1-17.798-4.096c-10.14-7.51-12.264-21.824-4.744-31.971-.076-.08-.172-.146-.252-.228-10.714-11.129-11.421-28.513-1.649-40.495a30.404 30.404 0 0 1-5.399-11.312c-3.957-16.334 6.08-32.795 22.418-36.768A30.457 30.457 0 0 1 97 260.866c3.182-16.53 19.16-27.364 35.688-24.197a30.538 30.538 0 0 1 5.757-7.636c12.132-11.71 31.452-11.378 43.153.744.06.063.108.139.169.202 11.252-8.416 26.787-8.08 37.65.816a22.867 22.867 0 0 1 18.084-3.6c12.32 2.738 20.081 14.947 17.332 27.27a22.842 22.842 0 0 1 17.799 4.097c10.14 7.51 12.264 21.824 4.743 31.97.077.08.173.146.253.229 10.713 11.128 11.421 28.513 1.649 40.495a30.413 30.413 0 0 1 5.39 11.303c3.957 16.334-6.081 32.795-22.42 36.766a30.513 30.513 0 0 1-.524 17.274c-5.26 16.017-22.506 24.748-38.52 19.502zM89.745 387.387c5.852 6.06 15.512 6.224 21.577.366l38.435-37.115-5.298-5.486c-5.851-6.06-15.511-6.224-21.576-.367l-5.298-5.486a22.902 22.902 0 0 1 22.19-5.526l2.228-2.152c4.549-4.393 4.679-11.637.29-16.182l5.49-5.302c7.302 7.579 7.086 19.643-.482 26.97l-.247.238a22.802 22.802 0 0 1 2.896 2.505l5.297 5.485 30.389-29.345a30.493 30.493 0 0 1-5.838-22.028c-5.915-5.504-15.103-5.427-20.935.176l-5.298-5.485c7.676-7.389 19.427-8.518 28.36-2.729a30.393 30.393 0 0 1 6.943-10.16 30.713 30.713 0 0 1 29.09-7.542l-1.966 7.369a22.9 22.9 0 0 0-18.81 3.228c-10.44 7.137-13.126 21.38-5.999 31.814l51.915-50.134a15.272 15.272 0 0 0 4.663-11.58c-.322-8.42-7.41-14.979-15.832-14.648-8.421.33-14.986 7.424-14.663 15.845l-7.627.288a22.941 22.941 0 0 1 4.288-14.211 22.875 22.875 0 0 0-18.771-4.16c-12.351 2.704-20.181 14.906-17.49 27.254l-7.45 1.624a30.335 30.335 0 0 1 6.06-25.656l-.17-.175a22.785 22.785 0 0 0-4.683-3.746c-10.781-6.5-24.8-3.026-31.31 7.76a30.331 30.331 0 0 1 8.83 6.315l-5.49 5.303a22.838 22.838 0 0 0-23.401-5.915c-12.026 3.837-18.672 16.695-14.845 28.716a30.458 30.458 0 0 1 28.45 20.736l-7.231 2.435a22.67 22.67 0 0 0-5.226-8.582 22.889 22.889 0 0 0-5.2-4.016c-11.006-6.208-24.969-2.313-31.187 8.699-6.217 11.012-2.335 24.97 8.671 31.178l-3.755 6.648a30.399 30.399 0 0 1-3.892-2.64c-6.814 8.987-6.073 21.592 1.746 29.706.082.085.183.151.265.236a22.68 22.68 0 0 1 16.52-3.73l-1.213 7.533a15.272 15.272 0 0 0-13.023 4.095c-6.065 5.857-6.238 15.517-.387 21.576zm26.487 27.428a15.281 15.281 0 0 0 16.49 3.583 45.774 45.774 0 0 1 27.824-36.703c23.314-9.72 50.075 1.294 59.773 24.598a22.797 22.797 0 0 0 19.41 2.61c11.998-3.845 18.615-16.685 14.78-28.678a30.456 30.456 0 0 1-28.449-20.736l7.23-2.434a22.677 22.677 0 0 0 5.227 8.581 22.854 22.854 0 0 0 5.2 4.017c11.006 6.206 24.969 2.312 31.186-8.7 6.218-11.011 2.336-24.97-8.671-31.177l3.756-6.648a30.469 30.469 0 0 1 3.892 2.64c6.813-8.988 6.073-21.592-1.746-29.707-.081-.084-.183-.15-.265-.236a22.674 22.674 0 0 1-16.521 3.73l1.214-7.533c4.742.76 9.566-.757 13.023-4.095 6.065-5.857 6.238-15.516.386-21.575-5.851-6.06-15.51-6.224-21.575-.367l-32.945 31.814 5.298 5.485c5.851 6.06 15.512 6.224 21.576.367l5.298 5.486a22.905 22.905 0 0 1-22.19 5.525l-2.229 2.153c-4.548 4.392-4.678 11.637-.289 16.182l-5.49 5.302c-7.303-7.58-7.086-19.643.482-26.97l.247-.239a22.891 22.891 0 0 1-2.896-2.503l-5.297-5.486-30.388 29.345a30.495 30.495 0 0 1 5.837 22.028c5.915 5.504 15.104 5.426 20.936-.176l5.297 5.486c-7.676 7.387-19.427 8.518-28.36 2.728a30.393 30.393 0 0 1-6.943 10.16l-5.297-5.485c8.014-7.769 9.273-20.176 2.981-29.383L116.62 393.24c-6.065 5.856-6.238 15.516-.387 21.575zm34.434 35.658c14.64 15.124 38.77 15.535 53.94.916 15.162-14.642 15.596-38.792.967-53.94-14.629-15.148-38.779-15.558-53.94-.917-15.163 14.643-15.596 38.792-.967 53.94zm49.461-47.415c11.682 12.124 11.346 31.417-.753 43.127-12.117 11.7-31.425 11.364-43.126-.753-11.702-12.118-11.365-31.426.752-43.127 12.117-11.701 31.425-11.365 43.127.753zm-38.394 37.077c8.781 9.076 23.252 9.328 32.344.565 9.088-8.776 9.341-23.258.565-32.345-8.776-9.088-23.258-9.34-32.345-.565-9.088 8.776-9.34 23.257-.564 32.345zm12.112-16.93l17.77.128-.211 7.628-21.587-.155a3.723 3.723 0 0 1-3.71-3.841l.3-10.79 7.63.055-.192 6.975zM63.268 327.782c-11.699-12.114-11.275-36.378.839-48.076l5.248 5.435c-9.068 8.757-9.407 28.327-.652 37.392l-5.435 5.249zm12.518-59.694l5.557 5.755-5.755 5.557-5.557-5.755 5.755-5.557zm220.32 58.618c11.7 12.115 11.276 36.377-.838 48.076l-5.249-5.435c9.068-8.758 9.407-28.327.653-37.393l5.435-5.248zm-12.32 48.382l5.557 5.755-5.755 5.557-5.557-5.755 5.755-5.557zM927.228 50.737c-2.886-2.598-3.13-7.034-.542-9.908l3.512-3.9a1.754 1.754 0 0 1 2.478-.125l3.92 3.53 55.036-61.124a1.754 1.754 0 0 1 2.477-.124l41.81 37.646c.03.027.043.066.071.085.106.109.198.232.272.365.03.051.06.098.084.153.086.191.136.396.149.605l1.356 24.77c.01.208-.018.417-.082.616-.018.057-.042.105-.066.16-.06.143-.14.277-.236.399-.024.028-.031.066-.056.093l-7.343 8.156 4.854.941c4.76.923 7.89 5.524 6.99 10.278-.901 4.755-5.49 7.861-10.251 6.939l-3.445-.667-6.896-1.336-4.936-.958L989.4 97.3c-2.587 2.873-7.024 3.095-9.91.496l-52.263-47.058zm67.598 8.85l25.426 4.923.652-3.442-25.427-4.925-.651 3.443zm-10.683-7.425l7.432 5.696 1.553-8.202-8.985 2.506zm38.068 2.016l-25.43-4.923-.652 3.444 25.431 4.922.651-3.443zm6.895 1.336l-3.449-.668-1.96 10.324 3.448.668 1.961-10.324zm9.366 7.168l-.003.004c.54-2.85-1.333-5.61-4.187-6.167l-1.723-.334-1.961 10.324 1.723.335a5.236 5.236 0 0 0 6.151-4.162zm-4.35-24.02l-.893-16.314-7.713 8.565 8.606 7.748zm-41.048-55.799l-53.865 59.823 45.73 41.176c.721.65.782 1.758.135 2.477l-3.513 3.901a3.508 3.508 0 0 0 .272 4.954 3.508 3.508 0 0 0 4.955-.248l25.567-28.395-19.909-3.852c-.023.003-.04-.011-.05-.022a1.76 1.76 0 0 1-.686-.308l-12.488-9.558-.104-.095a1.762 1.762 0 0 1-.518-.83 1.745 1.745 0 0 1 1.208-2.16l15.096-4.215c.232-.058.474-.068.711-.029.032.004.064-.01.094-.004l28.874 5.593 1.456.282 7.588-8.427-11.76-10.588a1.754 1.754 0 0 1-.135-2.477l10.54-11.705-39.198-35.293zM931.64 40.581l-2.342 2.601a3.508 3.508 0 0 0 .272 4.954l47.738 42.984a6.92 6.92 0 0 1 1.64-3.232l2.342-2.601-49.65-44.706zm32.916 13.368c6.13 5.52 13.702 7.934 18.002 5.737l1.608 3.125c-5.635 2.878-14.663.302-21.952-6.261-8.792-7.917-11.797-18.428-6.843-23.93 4.955-5.503 15.722-3.612 24.514 4.304a32.075 32.075 0 0 1 6.027 7.209l-3 1.803a28.986 28.986 0 0 0-5.369-6.411c-7.083-6.378-16.039-8.463-19.559-4.554-3.52 3.91-.511 12.6 6.572 18.978zm19.828-48.297l2.613 2.353-2.342 2.6-2.613-2.352 2.342-2.601zm5.226 4.706l33.971 30.587-2.342 2.601-33.97-30.587 2.341-2.601zM977.087 8.5l36.584 32.94-2.342 2.602-36.584-32.94 2.342-2.602zm-4.684 5.202l31.358 28.235-2.342 2.6-31.358-28.234 2.342-2.601zm21.078-23.409l2.613 2.353-2.342 2.6-2.613-2.352 2.342-2.6zm-4.684 5.202l2.613 2.353-2.342 2.6-2.613-2.352 2.342-2.601zm25.466 79.446l2.613 2.353-21.078 23.41-2.613-2.354 21.078-23.409zM990.19-24.444l-21.078 23.41-2.613-2.353 21.078-23.41c2.586-2.872 7.023-3.095 9.91-.496l14.372 12.941-2.342 2.601-14.373-12.94a3.508 3.508 0 0 0-4.954.247zM964.157-.786l2.613 2.353-2.342 2.6-2.613-2.352 2.342-2.601z"/>
            <g>
                <path fill="#FFF" fill-rule="nonzero" d="M1237 133c28.705.034 51.966 23.295 52 52 0 28.719-23.281 52-52 52s-52-23.281-52-52 23.281-52 52-52zm0 94.546c23.486-.026 42.52-19.058 42.545-42.545 0-23.498-19.048-42.546-42.546-42.546-23.497 0-42.545 19.048-42.545 42.546 0 23.497 19.048 42.545 42.545 42.545zm-90-42.48c-.043-23.136 8.964-45.386 25.126-62.066l6.874 6.536c-18.8 19.503-26.488 47.06-20.47 73.377l-9.288 2.087a89.348 89.348 0 0 1-2.242-19.934zM1156.77 226a88.296 88.296 0 0 1-4.769-10.94l8.736-3.06a77.193 77.193 0 0 0 4.264 9.78l-8.231 4.22zM1275 269.75c0 2.624-2.104 4.75-4.7 4.75h-23.5v19c0 5.246-4.209 9.5-9.4 9.5h-4.7c-2.597 0-4.7-2.127-4.7-4.75 0-2.624 2.103-4.75 4.7-4.75h4.7v-19c0-5.246 4.208-9.5 9.4-9.5h23.5c2.596 0 4.7 2.127 4.7 4.75zm-48 .75c0 2.485-2.09 4.5-4.667 4.5h-18.666c-2.578 0-4.667-2.015-4.667-4.5s2.09-4.5 4.667-4.5h18.666c2.578 0 4.667 2.015 4.667 4.5zm5.75 61.5h9.5c2.623 0 4.75 2.015 4.75 4.5s-2.127 4.5-4.75 4.5h-9.5c-2.624 0-4.75-2.015-4.75-4.5s2.126-4.5 4.75-4.5zM1147 398v-9.47c.083-22.734 14.843-42.812 36.522-49.68a57.309 57.309 0 0 1-12.837-36.077v-4.214c-10.465 0-18.948-8.481-18.948-18.942s8.483-18.94 18.948-18.94V237h9.473V302.778c0 26.437 21.44 47.869 47.885 47.869h17.915c26.446-.005 47.882-21.437 47.884-47.874v-23.156h9.474v23.156a57.314 57.314 0 0 1-12.836 36.079c21.676 6.867 36.436 26.945 36.52 49.677V398h-9.474v-9.47c-.07-20.484-14.665-38.04-34.796-41.856a56.819 56.819 0 0 1-7.836 5.588v3.12c0 20.922-16.966 37.883-37.895 37.883-20.927 0-37.894-16.96-37.894-37.883v-3.12a57.2 57.2 0 0 1-7.84-5.588c-20.131 3.816-34.723 21.372-34.792 41.855V398H1147zm98.957-37.883h-17.891a57.36 57.36 0 0 1-19.421-3.427c.658 14.673 12.406 26.418 27.084 27.075 15.66.701 28.923-11.422 29.625-27.075a57.346 57.346 0 0 1-19.397 3.427zm-84.747-80.5c0 5.23 4.242 9.47 9.474 9.47v-18.94c-5.232 0-9.474 4.24-9.474 9.47zM1218 284.5a4.5 4.5 0 1 1-9 0 4.5 4.5 0 0 1 9 0zm47 0a4.5 4.5 0 1 1-9 0 4.5 4.5 0 0 1 9 0zM1233 180h9v9h-9v-9zm18 0h9v9h-9v-9zm-37 0h9v9h-9v-9zm23.156-66a70.974 70.974 0 0 1 39.286 11.821c32.687 21.671 41.627 65.752 19.967 98.456l41.252 41.274c.118.114.234.231.35.348 5.452 5.65 5.297 14.653-.35 20.109-5.646 5.456-14.645 5.3-20.098-.349l-41.253-41.274a71.038 71.038 0 0 1-39.33 11.823c-39.249-.049-71.027-31.922-70.98-71.192.049-39.269 31.907-71.065 71.156-71.016zm-61.592 71.104c.039 34.017 27.591 61.584 61.592 61.623 34.017 0 61.592-27.589 61.592-61.623 0-34.033-27.575-61.623-61.592-61.623-34.016 0-61.592 27.59-61.592 61.623zm156.785 90.5a4.705 4.705 0 0 0-1.383-3.35l-26.807-26.816-6.7 6.703 26.803 26.815a4.738 4.738 0 0 0 8.087-3.352zm-34.89-36.869l-6.884-6.888a72.083 72.083 0 0 1-6.699 6.703l6.884 6.888 6.7-6.703zM1346 386h-9.454c.035-21.272-11.75-40.784-30.546-50.575l4.368-8.425c21.927 11.422 35.673 34.186 35.632 59z"/>
            </g>
        </g>
    </g>
</svg>
