<svg xmlns="http://www.w3.org/2000/svg" xmlns:xlink="http://www.w3.org/1999/xlink" width="114" height="37" viewBox="0 0 114 37">
  <defs>
    <clipPath id="clip-logo">
      <rect width="114" height="37"/>
    </clipPath>
  </defs>
  <g id="logo" clip-path="url(#clip-logo)">
    <rect width="114" height="37" fill="#fff"/>
    <g id="Group_2666" data-name="Group 2666" transform="translate(-2)">
      <g id="Group_2665" data-name="Group 2665" transform="translate(45 1927)">
        <circle id="Ellipse_114" data-name="Ellipse 114" cx="11" cy="11" r="11" transform="translate(40 -1925)" fill="#3d99c1"/>
        <path id="Path_45" data-name="Path 45" d="M1.17-1.5a.742.742,0,0,1,.555.22.781.781,0,0,1,.215.57.8.8,0,0,1-.215.575A.733.733,0,0,1,1.17.09.73.73,0,0,1,.62-.14.793.793,0,0,1,.4-.71a.771.771,0,0,1,.22-.57A.746.746,0,0,1,1.17-1.5ZM6.54-5.44a1.9,1.9,0,0,1,1.445.56,2.081,2.081,0,0,1,.535,1.5V0H6.98V-2.93A1.11,1.11,0,0,0,6.7-3.735a1.027,1.027,0,0,0-.775-.3,1.167,1.167,0,0,0-.9.395,1.446,1.446,0,0,0-.335.985V0H3.14V-7.42H4.68v2.99A2.006,2.006,0,0,1,6.54-5.44Zm4.84,1.03a1.957,1.957,0,0,1,.73-.76,2.135,2.135,0,0,1,1.05-.27v1.45A2.108,2.108,0,0,0,12.92-4a1.589,1.589,0,0,0-1.125.385A1.331,1.331,0,0,0,11.38-2.59V0H9.84V-5.38h1.54Z" transform="translate(44 -1911)" fill="#fff"/>
      </g>
      <path id="Path_44" data-name="Path 44" d="M9.5-8.74a10.314,10.314,0,0,0-2-.885,5.988,5.988,0,0,0-1.771-.311,2.03,2.03,0,0,0-1.035.23.75.75,0,0,0-.391.69.855.855,0,0,0,.529.782,10.131,10.131,0,0,0,1.725.621,18.2,18.2,0,0,1,2.162.771,4.031,4.031,0,0,1,1.472,1.127,2.977,2.977,0,0,1,.621,1.966A3.332,3.332,0,0,1,9.4-.886,6.028,6.028,0,0,1,5.773.138,9.534,9.534,0,0,1,2.852-.31,7.528,7.528,0,0,1,.414-1.587l1.15-2.392a7.254,7.254,0,0,0,2.1,1.138,6.716,6.716,0,0,0,2.2.4A2.3,2.3,0,0,0,7-2.68.783.783,0,0,0,7.429-3.4a.916.916,0,0,0-.541-.828,9.036,9.036,0,0,0-1.737-.644,17.567,17.567,0,0,1-2.1-.736A3.752,3.752,0,0,1,1.61-6.728a3.016,3.016,0,0,1-.6-1.944,3.33,3.33,0,0,1,1.38-2.852,5.757,5.757,0,0,1,3.5-1.012,9.289,9.289,0,0,1,2.53.357,8.446,8.446,0,0,1,2.3,1.023Zm6.647-1.4a4.5,4.5,0,0,1,1.679-1.748,4.91,4.91,0,0,1,2.415-.621v3.335a4.849,4.849,0,0,0-.552-.023,3.655,3.655,0,0,0-2.587.885,3.062,3.062,0,0,0-.955,2.358V0H12.6V-12.374h3.542ZM26.91-12.489a5.8,5.8,0,0,1,4.542,1.725,6.931,6.931,0,0,1,1.553,4.807q0,.552-.023.851H24.1a3.23,3.23,0,0,0,1.15,1.829,3.255,3.255,0,0,0,2.047.656,4.345,4.345,0,0,0,1.679-.333,4.439,4.439,0,0,0,1.449-.978l1.863,1.886A6.262,6.262,0,0,1,30-.426a7.7,7.7,0,0,1-3,.564,7.13,7.13,0,0,1-3.416-.782,5.487,5.487,0,0,1-2.254-2.208,6.651,6.651,0,0,1-.794-3.289,6.687,6.687,0,0,1,.805-3.324A5.636,5.636,0,0,1,23.6-11.7,6.782,6.782,0,0,1,26.91-12.489ZM29.67-7.2a2.8,2.8,0,0,0-.782-1.955,2.642,2.642,0,0,0-1.955-.736,2.7,2.7,0,0,0-1.92.724A3.366,3.366,0,0,0,24.035-7.2Zm17.3-9.867V0H43.447V-1.817A4.372,4.372,0,0,1,41.791-.357a4.973,4.973,0,0,1-2.254.495,5.852,5.852,0,0,1-3.07-.794A5.326,5.326,0,0,1,34.42-2.9,7.361,7.361,0,0,1,33.7-6.233a7.261,7.261,0,0,1,.713-3.289,5.23,5.23,0,0,1,2.024-2.208,5.768,5.768,0,0,1,3.013-.782,4.594,4.594,0,0,1,4,1.955v-6.509Zm-6.6,14.352a2.855,2.855,0,0,0,2.22-.954,3.547,3.547,0,0,0,.862-2.473,3.547,3.547,0,0,0-.862-2.473,2.855,2.855,0,0,0-2.22-.954,2.882,2.882,0,0,0-2.243.954,3.633,3.633,0,0,0-.885,2.473,3.633,3.633,0,0,0,.885,2.473A2.882,2.882,0,0,0,40.365-2.714Zm17.388-9.8a4.351,4.351,0,0,1,3.3,1.288,4.786,4.786,0,0,1,1.23,3.45V0H58.742V-6.739a2.552,2.552,0,0,0-.656-1.852A2.363,2.363,0,0,0,56.3-9.269a2.649,2.649,0,0,0-2.07.909A3.358,3.358,0,0,0,53.475-6.1V0H49.933V-12.374h3.542v2.162A4.624,4.624,0,0,1,57.753-12.512ZM62.376,1.541a4.119,4.119,0,0,0,.989.184,1.246,1.246,0,0,0,1.081-.437,2.1,2.1,0,0,0,.368-1.334V-12.374h3.519V.506a4.032,4.032,0,0,1-1.1,3A4.128,4.128,0,0,1,64.193,4.6a6.424,6.424,0,0,1-2.553-.483Zm4.14-19.412a1.863,1.863,0,0,1,1.392.552,1.952,1.952,0,0,1,.541,1.426,1.952,1.952,0,0,1-.541,1.426,1.862,1.862,0,0,1-1.392.552,1.815,1.815,0,0,1-1.368-.563,1.962,1.962,0,0,1-.54-1.415,1.952,1.952,0,0,1,.54-1.426A1.834,1.834,0,0,1,66.516-17.871ZM78.223,0V-1.449a3.969,3.969,0,0,1-1.61,1.2,5.856,5.856,0,0,1-2.277.414,4.378,4.378,0,0,1-3.1-1.07A3.639,3.639,0,0,1,70.081-3.7a3.285,3.285,0,0,1,1.23-2.725,5.575,5.575,0,0,1,3.485-1h3.4v-.23a1.871,1.871,0,0,0-.656-1.53,2.956,2.956,0,0,0-1.921-.54,7.652,7.652,0,0,0-3.68,1.081l-1.1-2.438a14.789,14.789,0,0,1,2.76-1.081,10.917,10.917,0,0,1,2.829-.345,5.742,5.742,0,0,1,3.853,1.173,4.135,4.135,0,0,1,1.392,3.266L81.7,0Zm-2.9-2.369A3.4,3.4,0,0,0,77.234-2.9,2.066,2.066,0,0,0,78.2-4.232v-1.1H75.417A2.777,2.777,0,0,0,73.888-5a1.2,1.2,0,0,0-.494,1.07,1.4,1.4,0,0,0,.517,1.138A2.162,2.162,0,0,0,75.325-2.369Z" transform="translate(12 31)" fill="#111"/>
    </g>
  </g>
</svg>
